<svg width="30" height="30" viewBox="0 0 30 30" fill="none" xmlns="http://www.w3.org/2000/svg">
<circle cx="15" cy="15" r="15" fill="#E6E6E6"/>
<path d="M8.33329 21.6667C7.87496 21.6667 7.48274 21.5036 7.15663 21.1775C6.83051 20.8514 6.66718 20.4589 6.66663 20V10C6.66663 9.54168 6.82996 9.14945 7.15663 8.82334C7.48329 8.49723 7.87551 8.3339 8.33329 8.33334H21.6666C22.125 8.33334 22.5175 8.49668 22.8441 8.82334C23.1708 9.15001 23.3338 9.54223 23.3333 10V20C23.3333 20.4583 23.1702 20.8508 22.8441 21.1775C22.518 21.5042 22.1255 21.6672 21.6666 21.6667H8.33329ZM15 15.8333L8.33329 11.6667V20H21.6666V11.6667L15 15.8333ZM15 14.1667L21.6666 10H8.33329L15 14.1667ZM8.33329 11.6667V10V20V11.6667Z" fill="#0F0F0F"/>
</svg>
