<svg width="30" height="30" viewBox="0 0 30 30" fill="none" xmlns="http://www.w3.org/2000/svg">
<circle cx="15" cy="15" r="15" fill="#E6E6E6"/>
<path d="M20.875 9.09167C20.1109 8.32009 19.2008 7.70831 18.1979 7.29197C17.195 6.87564 16.1192 6.66307 15.0333 6.66667C10.4833 6.66667 6.77498 10.375 6.77498 14.925C6.77498 16.3833 7.15831 17.8 7.87498 19.05L6.70831 23.3333L11.0833 22.1833C12.2916 22.8417 13.65 23.1917 15.0333 23.1917C19.5833 23.1917 23.2916 19.4833 23.2916 14.9333C23.2916 12.725 22.4333 10.65 20.875 9.09167ZM15.0333 21.7917C13.8 21.7917 12.5916 21.4583 11.5333 20.8333L11.2833 20.6833L8.68331 21.3667L9.37498 18.8333L9.20831 18.575C8.52294 17.4809 8.15908 16.2161 8.15831 14.925C8.15831 11.1417 11.2416 8.05834 15.025 8.05834C16.8583 8.05834 18.5833 8.775 19.875 10.075C20.5147 10.7116 21.0216 11.4688 21.3663 12.3028C21.7111 13.1368 21.8868 14.0309 21.8833 14.9333C21.9 18.7167 18.8166 21.7917 15.0333 21.7917ZM18.8 16.6583C18.5916 16.5583 17.575 16.0583 17.3916 15.9833C17.2 15.9167 17.0666 15.8833 16.925 16.0833C16.7833 16.2917 16.3916 16.7583 16.275 16.8917C16.1583 17.0333 16.0333 17.05 15.825 16.9417C15.6166 16.8417 14.95 16.6167 14.1666 15.9167C13.55 15.3667 13.1416 14.6917 13.0166 14.4833C12.9 14.275 13 14.1667 13.1083 14.0583C13.2 13.9667 13.3166 13.8167 13.4166 13.7C13.5166 13.5833 13.5583 13.4917 13.625 13.3583C13.6916 13.2167 13.6583 13.1 13.6083 13C13.5583 12.9 13.1416 11.8833 12.975 11.4667C12.8083 11.0667 12.6333 11.1167 12.5083 11.1083H12.1083C11.9666 11.1083 11.75 11.1583 11.5583 11.3667C11.375 11.575 10.8416 12.075 10.8416 13.0917C10.8416 14.1083 11.5833 15.0917 11.6833 15.225C11.7833 15.3667 13.1416 17.45 15.2083 18.3417C15.7 18.5583 16.0833 18.6833 16.3833 18.775C16.875 18.9333 17.325 18.9083 17.6833 18.8583C18.0833 18.8 18.9083 18.3583 19.075 17.875C19.25 17.3917 19.25 16.9833 19.1916 16.8917C19.1333 16.8 19.0083 16.7583 18.8 16.6583Z" fill="#0F0F0F"/>
</svg>
