<svg width="30" height="30" viewBox="0 0 30 30" fill="none" xmlns="http://www.w3.org/2000/svg">
<circle cx="15" cy="15" r="15" fill="#E6E6E6"/>
<path d="M16.5 14.1555V10.9215C16.5 10.1926 16.3679 10.0465 15.6425 10.0465L13.5863 10.0001C12.9458 10.0001 12.6255 10.0001 12.496 10.2075C12.3665 10.4148 12.51 10.6992 12.7962 11.2662C12.9554 11.5812 13.0412 11.8096 13.0412 12.1631V14.4906C13.0412 15.2256 13.0412 15.594 12.7612 15.7033C12.4812 15.8118 12.2493 15.5651 11.7838 15.0716C10.6463 13.8606 10.053 12.3486 9.66365 10.7001C9.58315 10.3588 9.5429 10.1882 9.42215 10.0937C9.3014 9.99921 9.12903 10.0001 8.78603 10.0001H6.86103C6.43928 10.0001 6.2284 10.0001 6.09628 10.1488C5.96503 10.2985 5.9904 10.4892 6.04115 10.8698C6.50315 14.306 9.52453 19.9401 15.1062 20.4773C16.0949 20.5718 16.5 20.305 16.5 19.2217C16.5 18.6075 16.4869 17.6152 17.2595 17.4848C17.6647 17.4166 17.9368 17.561 18.3892 17.9398C19.1732 18.5978 19.5844 19.4011 19.8705 20.011C20.0604 20.4152 20.2013 20.5001 20.6475 20.5001H22.4623C23.3793 20.5001 23.6287 20.2761 23.22 19.4151C22.7582 18.4495 22.1044 17.5882 21.2985 16.8837C20.742 16.4051 20.4647 16.1662 20.4498 15.9895C20.4332 15.8136 20.637 15.5642 21.0448 15.0655C21.8323 14.1012 22.905 12.5883 23.4055 10.9827C23.654 10.1865 23.4204 10.0001 22.6145 10.0001H20.9844C20.1943 10.0001 20.1952 9.97296 20.0088 10.869C19.706 12.3223 18.7155 13.7197 17.7845 14.6708C17.3427 15.1223 17.0758 15.3945 16.8002 15.2833C16.5245 15.1722 16.5 14.8345 16.5 14.1555Z" stroke="#0F0F0F" stroke-width="1.3125" stroke-linecap="round" stroke-linejoin="round"/>
</svg>
