<svg width="30" height="30" viewBox="0 0 30 30" fill="none" xmlns="http://www.w3.org/2000/svg">
<circle cx="15" cy="15" r="15" fill="#E6E6E6"/>
<path d="M14.5 17.8333C15.3841 17.8333 16.2319 17.4821 16.857 16.857C17.4822 16.2319 17.8334 15.384 17.8334 14.5C17.8334 13.6159 17.4822 12.7681 16.857 12.143C16.2319 11.5178 15.3841 11.1667 14.5 11.1667C13.616 11.1667 12.7681 11.5178 12.143 12.143C11.5179 12.7681 11.1667 13.6159 11.1667 14.5C11.1667 15.384 11.5179 16.2319 12.143 16.857C12.7681 17.4821 13.616 17.8333 14.5 17.8333Z" stroke="#0F0F0F" stroke-width="1.5" stroke-linecap="round" stroke-linejoin="round"/>
<path d="M7 17.8333V11.1667C7 10.0616 7.43899 9.00179 8.22039 8.22039C9.00179 7.43899 10.0616 7 11.1667 7H17.8333C18.9384 7 19.9982 7.43899 20.7796 8.22039C21.561 9.00179 22 10.0616 22 11.1667V17.8333C22 18.9384 21.561 19.9982 20.7796 20.7796C19.9982 21.561 18.9384 22 17.8333 22H11.1667C10.0616 22 9.00179 21.561 8.22039 20.7796C7.43899 19.9982 7 18.9384 7 17.8333Z" stroke="#0F0F0F" stroke-width="1.5"/>
<path d="M19.0833 9.925L19.0916 9.91583" stroke="#0F0F0F" stroke-width="1.5" stroke-linecap="round" stroke-linejoin="round"/>
</svg>
