<svg width="18" height="14" viewBox="0 0 18 14" fill="none" xmlns="http://www.w3.org/2000/svg">
<path d="M2.33329 13.6667C1.87496 13.6667 1.48274 13.5036 1.15663 13.1775C0.830515 12.8514 0.667182 12.4589 0.666626 12V2.00001C0.666626 1.54168 0.829959 1.14945 1.15663 0.823343C1.48329 0.497232 1.87551 0.333899 2.33329 0.333344H15.6666C16.125 0.333344 16.5175 0.496677 16.8441 0.823343C17.1708 1.15001 17.3338 1.54223 17.3333 2.00001V12C17.3333 12.4583 17.1702 12.8508 16.8441 13.1775C16.518 13.5042 16.1255 13.6672 15.6666 13.6667H2.33329ZM8.99996 7.83334L2.33329 3.66668V12H15.6666V3.66668L8.99996 7.83334ZM8.99996 6.16668L15.6666 2.00001H2.33329L8.99996 6.16668ZM2.33329 3.66668V2.00001V12V3.66668Z" fill="white"/>
</svg>
