<svg width="11" height="11" viewBox="0 0 11 11" fill="none" xmlns="http://www.w3.org/2000/svg">
<path d="M10.3889 7.63889C9.65556 7.63889 8.86111 7.51667 8.18889 7.27222H8.00556C7.82222 7.27222 7.7 7.33333 7.57778 7.45556L6.23333 8.8C4.52222 7.88333 3.05556 6.47778 2.2 4.76667L3.54444 3.42222C3.72778 3.23889 3.78889 2.99444 3.66667 2.81111C3.48333 2.13889 3.36111 1.34444 3.36111 0.611111C3.36111 0.305556 3.05556 0 2.75 0H0.611111C0.305556 0 0 0.305556 0 0.611111C0 6.35556 4.64444 11 10.3889 11C10.6944 11 11 10.6944 11 10.3889V8.25C11 7.94444 10.6944 7.63889 10.3889 7.63889ZM1.22222 1.22222H2.13889C2.2 1.77222 2.32222 2.32222 2.44444 2.81111L1.71111 3.54444C1.46667 2.81111 1.28333 2.01667 1.22222 1.22222ZM9.77778 9.77778C8.98333 9.71667 8.18889 9.53333 7.45556 9.28889L8.18889 8.55556C8.67778 8.67778 9.22778 8.8 9.77778 8.8V9.77778Z" fill="#E6E6E6"/>
</svg>
